# File created by Blade
# Date/Time:  Fri Jan 16 19:49:56 2015
# Frame Rate: 120.000 fps
#------------------------------------------------------
:FULLY-SPECIFIED
:DEGREES
446
root 20.184351 34.994866 -11.687512 -104.938304 0.485866 -178.313384
Spine 72.002982 0.932158 -9.123638
Head -13.403079 3.592043 0.303337
LeftShoulder -19.942560 21.718647 11.459327
LeftArm -59.577306 10.691354 -100.251625
LeftForeArm 21.410344 -0.000000 -0.948986
LeftHand -1.642541 -0.000000 -42.219881
LeftHandThumb1 -26.253704 0.000000 33.147579
RightShoulder -26.278611 -53.558232 -3.663461
RightArm -22.098535 -22.985654 85.418944
RightForeArm -39.792675 -0.000000 6.883516
RightHand 4.429255 -0.000000 48.680618
RightHandThumb1 -24.326973 -0.000000 -32.862282
LeftUpLeg -82.067519 6.530251 3.320221
LeftLeg -4.915432 -0.000000 0.000000
LeftFoot -5.783449 31.817616 -8.275009
LeftToeBase 27.602649 -0.000000 -0.000000
RightUpLeg -81.462378 -2.738020 -5.077214
RightLeg -4.532285 -0.000000 0.000000
RightFoot -6.260704 -19.507605 13.333987
RightToeBase 27.284570 -0.000000 -0.000000
447
root 20.176798 34.997922 -11.709110 -104.945421 0.527576 -178.354508
Spine 71.912351 0.953284 -9.091283
Head -13.287790 3.504157 0.291341
LeftShoulder -19.925340 21.738735 11.502135
LeftArm -59.611386 10.589780 -100.144983
LeftForeArm 21.588134 -0.000000 -0.915821
LeftHand -1.652528 -0.000000 -42.169948
LeftHandThumb1 -26.253704 0.000000 33.147579
RightShoulder -26.245034 -53.551493 -3.687131
RightArm -22.205885 -23.044797 85.431743
RightForeArm -39.774884 -0.000000 6.946471
RightHand 4.477410 -0.000000 48.673423
RightHandThumb1 -24.326973 -0.000000 -32.862282
LeftUpLeg -81.983716 6.478488 3.324981
LeftLeg -4.972359 -0.000000 0.000000
LeftFoot -5.789802 31.866694 -8.288850
LeftToeBase 27.516843 -0.000000 -0.000000
RightUpLeg -81.400018 -2.769296 -5.070380
RightLeg -4.591807 -0.000000 0.000000
RightFoot -6.245486 -19.533666 13.248045
RightToeBase 27.300522 -0.000000 -0.000000
448
root 20.169332 35.002173 -11.731481 -104.967414 0.574370 -178.381589
Spine 71.823198 0.982720 -9.050808
Head -13.193210 3.439343 0.235333
LeftShoulder -19.905389 21.775549 11.514508
LeftArm -59.610081 10.557951 -100.138165
LeftForeArm 21.645190 -0.000000 -0.930613
LeftHand -1.601991 -0.000000 -42.091359
LeftHandThumb1 -26.253704 0.000000 33.147579
RightShoulder -26.193263 -53.502406 -3.792075
RightArm -22.323549 -23.193655 85.516239
RightForeArm -39.674077 -0.000000 6.962257
RightHand 4.456415 -0.000000 48.680783
RightHandThumb1 -24.326973 -0.000000 -32.862282
LeftUpLeg -81.893542 6.443670 3.311019
LeftLeg -5.014464 -0.000000 0.000000
LeftFoot -5.829893 31.900469 -8.333289
LeftToeBase 27.576122 -0.000000 -0.000000
RightUpLeg -81.327099 -2.785215 -5.069521
RightLeg -4.646103 -0.000000 0.000000
RightFoot -6.188486 -19.535289 13.167106
RightToeBase 27.218950 -0.000000 -0.000000
449
root 20.163750 35.005822 -11.754595 -105.024315 0.607417 -178.403101
Spine 71.768408 1.022336 -8.988062
Head -13.161707 3.370346 0.175250
LeftShoulder -19.889693 21.812369 11.561893
LeftArm -59.613212 10.545960 -100.144624
LeftForeArm 21.711065 -0.000000 -0.877251
LeftHand -1.639830 -0.000000 -42.073779
LeftHandThumb1 -26.253704 0.000000 33.147579
RightShoulder -26.243179 -53.528080 -3.782607
RightArm -22.329256 -23.316933 85.524506
RightForeArm -39.601137 -0.000000 7.013010
RightHand 4.500960 -0.000000 48.636044
RightHandThumb1 -24.326973 -0.000000 -32.862282
LeftUpLeg -81.776004 6.412470 3.312638
LeftLeg -5.043357 -0.000000 0.000000
LeftFoot -5.850350 31.925476 -8.339002
LeftToeBase 27.484616 -0.000000 -0.000000
RightUpLeg -81.217290 -2.793997 -5.082823
RightLeg -4.694972 -0.000000 0.000000
RightFoot -6.174707 -19.567429 13.090615
RightToeBase 27.251995 -0.000000 -0.000000
450
root 20.158906 35.009723 -11.776962 -105.078540 0.613895 -178.416154
Spine 71.685506 1.037403 -8.944301
Head -13.104342 3.375173 0.119825
LeftShoulder -19.938001 21.893311 11.518400
LeftArm -59.553805 10.557135 -100.165541
LeftForeArm 21.630883 -0.000000 -0.898941
LeftHand -1.646542 -0.000000 -42.074008
LeftHandThumb1 -26.253704 0.000000 33.147579
RightShoulder -26.219273 -53.607436 -3.824032
RightArm -22.219870 -23.352309 85.482966
RightForeArm -39.577084 -0.000000 7.000982
RightHand 4.495548 0.000000 48.652703
RightHandThumb1 -24.326973 -0.000000 -32.862282
LeftUpLeg -81.680661 6.385854 3.344121
LeftLeg -5.037993 -0.000000 0.000000
LeftFoot -5.892997 31.929802 -8.347717
LeftToeBase 27.589961 -0.000000 -0.000000
RightUpLeg -81.113837 -2.801186 -5.072245
RightLeg -4.734166 -0.000000 0.000000
RightFoot -6.155214 -19.591928 13.021820
RightToeBase 27.270077 -0.000000 -0.000000
451
root 20.153104 35.013184 -11.796543 -105.149081 0.653261 -178.435627
Spine 71.617630 1.056364 -8.897694
Head -13.163594 3.311716 0.028431
LeftShoulder -19.948789 21.887521 11.460268
LeftArm -59.577892 10.585512 -100.186346
LeftForeArm 21.541063 -0.000000 -0.898743
LeftHand -1.607870 -0.000000 -42.045546
LeftHandThumb1 -26.253704 0.000000 33.147579
RightShoulder -26.221368 -53.513452 -3.901646
RightArm -22.293125 -23.454579 85.504033
RightForeArm -39.459302 -0.000000 6.973457
RightHand 4.520190 -0.000000 48.631068
RightHandThumb1 -24.326973 -0.000000 -32.862282
LeftUpLeg -81.575257 6.356704 3.354025
LeftLeg -5.024706 -0.000000 0.000000
LeftFoot -5.948557 31.962296 -8.369469
LeftToeBase 27.632622 -0.000000 -0.000000
RightUpLeg -81.029430 -2.816561 -5.070043
RightLeg -4.725497 -0.000000 0.000000
RightFoot -6.138984 -19.546547 12.948268
RightToeBase 27.266742 -0.000000 -0.000000
452
root 20.145130 35.017520 -11.818839 -105.232112 0.732851 -178.461311
Spine 71.545744 1.099129 -8.883859
Head -13.170010 3.249843 -0.047701
LeftShoulder -19.940811 21.904532 11.486008
LeftArm -59.545161 10.612161 -100.231720
LeftForeArm 21.477852 0.000000 -0.931103
LeftHand -1.558891 -0.000000 -42.063533
LeftHandThumb1 -26.253704 0.000000 33.147579
RightShoulder -26.326718 -53.562352 -3.805417
RightArm -22.197333 -23.361903 85.384425
RightForeArm -39.475339 -0.000000 7.021119
RightHand 4.527063 -0.000000 48.670062
RightHandThumb1 -24.326973 -0.000000 -32.862282
LeftUpLeg -81.449115 6.326974 3.312049
LeftLeg -5.012437 -0.000000 0.000000
LeftFoot -6.000807 31.992184 -8.393055
LeftToeBase 27.457727 -0.000000 -0.000000
RightUpLeg -80.945605 -2.812627 -5.139484
RightLeg -4.679419 -0.000000 0.000000
RightFoot -6.181356 -19.605556 12.926360
RightToeBase 27.249439 -0.000000 -0.000000
453
root 20.139426 35.022866 -11.843745 -105.336109 0.762485 -178.464951
Spine 71.506986 1.124922 -8.898232
Head -13.249422 3.277677 -0.058621
LeftShoulder -19.996899 21.835214 11.466007
LeftArm -59.598558 10.532186 -100.193528
LeftForeArm 21.475250 -0.000000 -0.883157
LeftHand -1.590002 -0.000000 -42.022048
LeftHandThumb1 -26.253704 0.000000 33.147579
RightShoulder -26.221199 -53.499612 -3.908982
RightArm -22.160242 -23.383341 85.349066
RightForeArm -39.479392 -0.000000 6.987924
RightHand 4.571864 -0.000000 48.666428
RightHandThumb1 -24.326973 -0.000000 -32.862282
LeftUpLeg -81.286406 6.311756 3.369442
LeftLeg -5.020358 -0.000000 0.000000
LeftFoot -6.040477 32.033820 -8.422186
LeftToeBase 27.465085 -0.000000 -0.000000
RightUpLeg -80.828253 -2.805537 -5.133364
RightLeg -4.645496 -0.000000 0.000000
RightFoot -6.190121 -19.593612 12.924663
RightToeBase 27.188380 -0.000000 -0.000000
454
root 20.134038 35.027653 -11.866923 -105.436613 0.820783 -178.476462
Spine 71.440310 1.188425 -8.847667
Head -13.273206 3.182501 -0.082201
LeftShoulder -19.961879 21.791532 11.503174
LeftArm -59.662012 10.616497 -100.393129
LeftForeArm 21.236752 -0.000000 -0.804351
LeftHand -1.565998 -0.000000 -42.148875
LeftHandThumb1 -26.253704 0.000000 33.147579
RightShoulder -26.233901 -53.313184 -3.939159
RightArm -22.307535 -23.416937 85.357751
RightForeArm -39.383602 0.000000 7.043869
RightHand 4.502426 -0.000000 48.740137
RightHandThumb1 -24.326973 -0.000000 -32.862282
LeftUpLeg -81.146703 6.298856 3.366705
LeftLeg -4.990652 -0.000000 0.000000
LeftFoot -6.114295 32.030630 -8.452250
LeftToeBase 27.465312 -0.000000 -0.000000
RightUpLeg -80.724111 -2.806474 -5.134196
RightLeg -4.609881 -0.000000 0.000000
RightFoot -6.169966 -19.512603 12.863803
RightToeBase 27.164445 -0.000000 -0.000000
455
root 20.129756 35.032822 -11.892085 -105.552785 0.852718 -178.488934
Spine 71.394425 1.223154 -8.827368
Head -13.332975 3.210352 -0.081891
LeftShoulder -19.992920 21.762983 11.491553
LeftArm -59.669509 10.658620 -100.508907
LeftForeArm 21.084613 -0.000000 -0.747586
LeftHand -1.538052 -0.000000 -42.149735
LeftHandThumb1 -26.253704 0.000000 33.147579
RightShoulder -26.283096 -53.284371 -3.873361
RightArm -22.217019 -23.515328 85.303409
RightForeArm -39.296356 -0.000000 7.048085
RightHand 4.534610 -0.000000 48.749644
RightHandThumb1 -24.326973 -0.000000 -32.862282
LeftUpLeg -80.979947 6.272308 3.439020
LeftLeg -4.973876 -0.000000 0.000000
LeftFoot -6.161301 32.082546 -8.471346
LeftToeBase 27.443247 -0.000000 -0.000000
RightUpLeg -80.591001 -2.799844 -5.158826
RightLeg -4.578758 -0.000000 0.000000
RightFoot -6.188435 -19.524295 12.809159
RightToeBase 27.172672 -0.000000 -0.000000
